<svg id="Layer_1" data-name="Layer 1" xmlns="http://www.w3.org/2000/svg" viewBox="0 0 450 450"><defs><style>.cls-1{fill:#00a3d8;}.cls-2{fill:#8d4000;}.cls-3{fill:#2cd8ff;}.cls-4{fill:#00d1ff;}.cls-5{fill:#b3f1ff;}.cls-6{fill:#fff9f2;}.cls-7{fill:#ffd499;}.cls-8{fill:#ccaa7a;}.cls-9{fill:#fff;}.cls-10{fill:#2f2f2f;}</style></defs><title>investigate</title><rect class="cls-1" width="450" height="450"/><path class="cls-2" d="M270.28,353.06a204,204,0,0,0-4-22c-.73-3.26-1.6-6.77-2.57-10.47s-2.09-7.57-3.2-11.59-2.41-8.13-3.8-12.29-2.73-8.41-4.27-12.61c-2.94-8.42-6.12-16.78-9.28-24.57-1.61-3.88-3.07-7.67-4.63-11.21s-3-6.89-4.34-10-2.7-5.9-3.83-8.4l-.78-1.68a109.48,109.48,0,0,1-40.53,10.86c0,.62.11,1.19.17,1.85.27,2.73.47,5.84.88,9.19s.8,7,1.24,10.82,1,7.85,1.59,12c1.16,8.33,2.58,17.16,4.25,25.92.77,4.4,1.72,8.75,2.61,13.05s1.93,8.48,2.85,12.55,2,8,3,11.64,2,7.16,3,10.35a204.2,204.2,0,0,0,7.52,21,28.34,28.34,0,0,0,54.09-14.49Z"/><circle class="cls-3" cx="185.03" cy="143.06" r="83.4" transform="translate(-48.82 139.2) rotate(-36.76)"/><path class="cls-4" d="M163.44,73.5a83.4,83.4,0,0,1,104.8,75,83.4,83.4,0,1,0-166.43.05A83.37,83.37,0,0,1,163.44,73.5Z"/><path class="cls-5" d="M206.79,196.5A84.06,84.06,0,0,1,120,168.65a69.84,69.84,0,0,0,130-.06A83.6,83.6,0,0,1,206.79,196.5Z"/><path class="cls-6" d="M278.55,107.42a100.13,100.13,0,0,1-77.63,134.46c-46.43,7.63-92.81-19.15-109.42-63.18A100.14,100.14,0,0,1,169.13,44.24C215.56,36.61,262,63.39,278.55,107.42ZM206.61,223.61a83.39,83.39,0,1,0-102.14-59A83.37,83.37,0,0,0,206.61,223.61Z"/><path class="cls-7" d="M343.33,356.37l-39.52-76.54a32.33,32.33,0,0,0-13.18-13.51l-26.69-14.64L237.76,209.9A7,7,0,0,0,227,208.57,34.05,34.05,0,0,0,220.74,249l13,24.31-.33.24-.31,3.19a54.8,54.8,0,0,0,28.57,53.4l.32.17,4.43,1.42a205,205,0,0,1,3.86,21.33A28.4,28.4,0,0,1,253.56,382a27.91,27.91,0,0,1-7.64,2.15l47.15,33.59,50.26-61.37Z"/><path class="cls-7" d="M200.88,345.48l-1.46,4.35a12,12,0,0,0,3.52,12.9l22.75,19.51a2.54,2.54,0,0,0,4-.91,15.14,15.14,0,0,0-5.34-18.14Z"/><path class="cls-8" d="M230.63,373.71a15,15,0,0,0-6.29-10.52l-23.46-17.71-1.26,3.76Z"/><polygon class="cls-8" points="185.84 263.7 190.1 250.19 192.34 268.74 185.84 263.7"/><path class="cls-7" d="M185.08,289.86l-.85,13.67a12,12,0,0,0,4.7,10.28l34.5,26.1a3,3,0,0,0,4.61-1.19,19.79,19.79,0,0,0-6.72-24.27Z"/><path class="cls-8" d="M184.82,294.16l44,30.8a19.62,19.62,0,0,0-7.51-10.51l-36.24-24.59Z"/><path class="cls-7" d="M185.84,263.7,181.53,277a12,12,0,0,0,4.54,13.52l33.16,23a2.46,2.46,0,0,0,3.57-.76,19.79,19.79,0,0,0-6.24-25.27Z"/><path class="cls-7" d="M193.39,317.21l-.69,15.46a12,12,0,0,0,4.56,9.95l31.57,24.68a2.34,2.34,0,0,0,3.51-.65,19.79,19.79,0,0,0-6.26-25.24Z"/><path class="cls-8" d="M233.59,351.92a19.55,19.55,0,0,0-7.51-10.51l-32.69-24.2-.17,3.89Z"/><path class="cls-9" d="M235.55,211.28a4.38,4.38,0,0,0-3.74-2.06,4.27,4.27,0,0,0-.71.07,19,19,0,0,0,3.38,22.24l8.46-8.46Z"/><path class="cls-9" d="M208,302.58l12.6,8.73a16.9,16.9,0,0,0,1.73-8.42,18.86,18.86,0,0,0-5.13-9.5Z"/><path class="cls-9" d="M225.66,337.66a16.67,16.67,0,0,0,1.21-4,18.81,18.81,0,0,0-5.1-9.37l-6.29,6.29,9.52,7.21a.46.46,0,0,0,.25.08A.44.44,0,0,0,225.66,337.66Z"/><path class="cls-9" d="M219.52,356.72l10.69,8.35a17,17,0,0,0,1-2.7,18.89,18.89,0,0,0-5.48-11.88Z"/><path class="cls-9" d="M221.77,369.37l-3.27,3.27,8.6,7.37A19,19,0,0,0,221.77,369.37Z"/><path class="cls-9" d="M252.7,237.47a15.23,15.23,0,0,1-1.44,1.94c-.46.55-1,1.15-1.65,1.77s-1.32,1.26-2.05,1.85-1.47,1.17-2.19,1.67-1.43,1-2.05,1.3a15.23,15.23,0,0,1-2.17,1.06,14.48,14.48,0,0,1,1.43-1.94,23.62,23.62,0,0,1,1.66-1.77c.63-.62,1.32-1.26,2-1.85s1.47-1.17,2.2-1.67a24,24,0,0,1,2-1.3A15.23,15.23,0,0,1,252.7,237.47Z"/><path class="cls-9" d="M253,241.7a9.57,9.57,0,0,1-1,1.55,16.78,16.78,0,0,1-2.68,2.78,16.44,16.44,0,0,1-3.22,2.12,9.21,9.21,0,0,1-1.7.67,8.87,8.87,0,0,1,1-1.56,17.58,17.58,0,0,1,5.9-4.89A8.6,8.6,0,0,1,253,241.7Z"/><polygon class="cls-6" points="345.22 353.4 339.08 348.14 285.02 413.68 290.03 419.06 345.22 353.4"/><polygon class="cls-10" points="450 437.65 346.45 351.92 287.96 421.52 315.28 450 450 450 450 437.65"/></svg>